# xmcd
#
# Track frame offsets:
#	150
#	15618
#	36565
#	51367
#	71942
#	85682
#	101082
#	121958
#	136746
#	157245
#
# Disc length: 2281 seconds
#
# Revision: 1
# Processed by: cddbd v1.5.2PL0 Copyright (c) Steve Scherf et al.
# Submitted via: audiograbber 1.83.01
#
DISCID=8d08e70a
DTITLE=Shania Twain - ProSound
DYEAR=1900
DGENRE=
TTITLE0=It Matters to Me
TTITLE1=If You're Not in it for love
TTITLE2=Safe in the arms of love
TTITLE3=You Win My Love
TTITLE4=When Boy Meets Girl
TTITLE5=It Matters to me - vocals
TTITLE6=If You're Not in it for love - vocals
TTITLE7=Safe in the arms of love - vocals
TTITLE8=You Win My Love - vocals
TTITLE9=When Boy Meets Girl - vocals
EXTD=
EXTT0=
EXTT1=
EXTT2=
EXTT3=
EXTT4=
EXTT5=
EXTT6=
EXTT7=
EXTT8=
EXTT9=
PLAYORDER=
